<svg xmlns="http://www.w3.org/2000/svg" viewBox="0 0 512 512">
  <!-- Vollflächiger Hintergrund (für Android-Maskierung, kein Rand) -->
  <rect width="512" height="512" fill="#fbf6ed"/>

  <!-- Blüte etwas kleiner, damit sie in der iOS/Android-Maske nicht angeschnitten wird (Safe Zone ~80%) -->
  <g transform="translate(256 256) scale(0.78)">
    <g fill="#2F4F3E">
      <ellipse cx="0" cy="-110" rx="58" ry="92"/>
      <g transform="rotate(60)">  <ellipse cx="0" cy="-110" rx="58" ry="92"/></g>
      <g transform="rotate(120)"> <ellipse cx="0" cy="-110" rx="58" ry="92"/></g>
      <g transform="rotate(180)"> <ellipse cx="0" cy="-110" rx="58" ry="92"/></g>
      <g transform="rotate(240)"> <ellipse cx="0" cy="-110" rx="58" ry="92"/></g>
      <g transform="rotate(300)"> <ellipse cx="0" cy="-110" rx="58" ry="92"/></g>
    </g>
    <g fill="#5A8068" opacity="0.55">
      <ellipse cx="0" cy="-90" rx="34" ry="58"/>
      <g transform="rotate(60)">  <ellipse cx="0" cy="-90" rx="34" ry="58"/></g>
      <g transform="rotate(120)"> <ellipse cx="0" cy="-90" rx="34" ry="58"/></g>
      <g transform="rotate(180)"> <ellipse cx="0" cy="-90" rx="34" ry="58"/></g>
      <g transform="rotate(240)"> <ellipse cx="0" cy="-90" rx="34" ry="58"/></g>
      <g transform="rotate(300)"> <ellipse cx="0" cy="-90" rx="34" ry="58"/></g>
    </g>
    <circle r="42" fill="#a67952"/>
    <circle r="42" fill="none" stroke="#5a3a24" stroke-width="6"/>
    <g fill="#5a3a24">
      <circle cx="-14" cy="-8" r="4"/>
      <circle cx="12"  cy="-12" r="4"/>
      <circle cx="0"   cy="10" r="4"/>
      <circle cx="-10" cy="14" r="4"/>
      <circle cx="14"  cy="8" r="4"/>
    </g>
  </g>
</svg>
